<svg xmlns="http://www.w3.org/2000/svg" viewBox="0 0 949.89 463.79"><defs><style>.cls-1{fill:#ff2020;}</style></defs><g id="Layer_2" data-name="Layer 2"><g id="Layer_1-2" data-name="Layer 1"><path class="cls-1" d="M949.35,186.48c1.16.26.52,0-2.73-.31a16.66,16.66,0,0,0-2.34.1A43.08,43.08,0,0,1,949.35,186.48Z"/><path class="cls-1" d="M927.56,187a15.63,15.63,0,0,0-4.63,2.65c-1,.91-1.19,1.67.08,1.72a15.32,15.32,0,0,1,1.9-1.54c.58-.35,1.1-.63,1.64-.91,1.06-.59,2.19-1.1,4.06-2.08,3.18-.7,5.61-.61,5.08-.33,1.12-.37,5-.43,6.75-.62-4.18-.34-9.72-.29-15,1.83C926.3,187.84,927.33,187.21,927.56,187Z"/><path class="cls-1" d="M712.41,328.31c-.27.68-.49,1.32-.73,2A3.15,3.15,0,0,0,712.41,328.31Z"/><path class="cls-1" d="M660.39,114c1.47.46,2.24-.82,2.48-2.26C661.4,112,660.21,112.38,660.39,114Z"/><path class="cls-1" d="M622.17,91.09a19.35,19.35,0,0,0,2.4.55C623.6,90.38,622.64,89.77,622.17,91.09Z"/><path class="cls-1" d="M712.41,328.31q.54-1.31,1.11-2.55c.38-.84.81-1.69,1.23-2.51C711.1,324,712.58,326.11,712.41,328.31Z"/><path class="cls-1" d="M900,216.71a12.26,12.26,0,0,0,.49-2.77c-.26.82-.52,1.6-.81,2.4A4.06,4.06,0,0,1,900,216.71Z"/><path class="cls-1" d="M757.42,331.43l1.29-.73a26.38,26.38,0,0,0-.9-3.65Z"/><path class="cls-1" d="M812.42,296.57c-1.36.6,2,5.61,3.17,8-.88-2.45-.73-4,0-5.11A15.5,15.5,0,0,0,812.42,296.57Z"/><path class="cls-1" d="M884.34,225.31l.48-1.87C884.71,223.94,884.44,224.73,884.34,225.31Z"/><path class="cls-1" d="M729.63,337.3c.14-.6.43-1.8.74-3.09C730.08,335.26,729.81,336.29,729.63,337.3Z"/><path class="cls-1" d="M26.54,160.88c-.15-.13-.3-.13-.44-.22C26.14,161.07,26.25,161.25,26.54,160.88Z"/><path class="cls-1" d="M5.84,230.21l-.25-1.05a1.69,1.69,0,0,0-.08-.22C5.63,229.36,5.74,229.78,5.84,230.21Z"/><path class="cls-1" d="M572.68,102.17c.15.13.18.1.31.16C573.63,99,573,100,572.68,102.17Z"/><path class="cls-1" d="M449.31,111.29c-3,3.41-5.92,4.34-8.79,4.3s-5.71-1.11-8.59-1.94-5.73-1.43-8.62-.7-5.82,2.76-8.95,6.88c1.5-.73,4-.86,7.08-.78s6.6.36,10.2.4C438.82,119.49,446.21,118.61,449.31,111.29Z"/><path class="cls-1" d="M899.12,218c-.31.78-.61,1.6-1,2.39A14.73,14.73,0,0,0,899.12,218Z"/><path class="cls-1" d="M414.36,119.83l-.13,0c-.39.56-.77,1.1-1.17,1.65C413.59,120.82,413.93,120.41,414.36,119.83Z"/><path class="cls-1" d="M490.06,281.44c2.16,1.68,3.86,2.84,5.53,3.91C494.33,284.37,492.75,283.28,490.06,281.44Z"/><path class="cls-1" d="M563.14,178.9,560.53,180A2.38,2.38,0,0,0,563.14,178.9Z"/><path class="cls-1" d="M487,314.44c-1-.84-1.81-3-2-.27a20,20,0,0,0,.8,1.88C485.52,313.57,485.54,312.29,487,314.44Z"/><path class="cls-1" d="M460.57,325.62c-.16,1.53-.18,2.65-.25,4,.38-.46.78-.84,1.15-1.26C461.15,327.44,460.85,326.54,460.57,325.62Z"/><path class="cls-1" d="M133.86,141.65,139.2,137a19,19,0,0,1-4.77,2.56c-.46.22-.74.43-.84.74S133.62,141,133.86,141.65Z"/><path class="cls-1" d="M898.85,216.06a2.24,2.24,0,0,1,.27,2c.22-.58.41-1.14.59-1.7C899.46,216,899.19,215.82,898.85,216.06Z"/><path class="cls-1" d="M522.36,442.85l-7.5,2.51-7.49,2.16a34.15,34.15,0,0,0,7.2-1.37A53.87,53.87,0,0,0,522.36,442.85Z"/><path class="cls-1" d="M225.42,416.91l-1.94,2.94C224.3,419.83,225,419,225.42,416.91Z"/><path class="cls-1" d="M463.53,463.69c-2.43-5.48-4.89-8.37-7.48-10.25A23.75,23.75,0,0,0,454,458C457.05,460,460.22,461.87,463.53,463.69Z"/><path class="cls-1" d="M139.26,136.94a.31.31,0,0,1-.06.06A.31.31,0,0,0,139.26,136.94Z"/><path class="cls-1" d="M106.54,134.09c5.52,1.49,2.89-7.24,4.43-11.64,3.91-.42,4.58,1.39,4.48,3.79s-.82,5.46-.13,8c2-.33,4.06-2.14,6.12-3.55.52-.36,1-.71,1.56-1a9.39,9.39,0,0,1,1.44-.69,4,4,0,0,1,1.32-.29,1.84,1.84,0,0,1,1,.35c-.33,1.48-.1,2.26-1.32,3.64a6.71,6.71,0,0,1,1.11-.69,4.64,4.64,0,0,1,1-.33,4.08,4.08,0,0,1,2,0,5.86,5.86,0,0,1,1.77.78l.82.53c.27.18.48.41.73.6s.49.38.74.55a5.13,5.13,0,0,0,.69.54,6.56,6.56,0,0,0,1.55.76,6.31,6.31,0,0,0,2.06.18,17.47,17.47,0,0,0,3-.51,10.45,10.45,0,0,1-1.75,1.85,105.17,105.17,0,0,1,10.55-8.56,4.93,4.93,0,0,0,1.91,1.23,18.11,18.11,0,0,1,2.18.92c1.18.71,1.6,1.68-1.19,3.65-.24-.9-1-1-2-.92s-2.05.49-3.08.67a30.51,30.51,0,0,1,3.64,1.22,9.62,9.62,0,0,1-4,2.38,1.73,1.73,0,0,1-1.73-.58,3.84,3.84,0,0,0-1.47-1c-.66-.13-1.57.1-3,1l1.72.73c.66.23,1.31.56,2,.87l.27.13.07,0V139l0,.49,0,.49a2.63,2.63,0,0,0,.08.3l.17.57c.24.76.48,1.5.73,2.22l.38,1.06c.11.38.19.79.29,1.17l.56,2.26.28,1.1.14,1.23.27,2.37.11,1.16-.22,1.47c-.16,1-.32,1.93-.51,2.89l-.29,1.43-.08.36a5.92,5.92,0,0,1-.28.57l-.62,1.19c-.84,1.59-1.69,3.17-2.57,4.76-.46.81-.92,1.61-1.36,2.41l-.71,1.21-.36.62-.18.31-.1.15,0,.08-.14.17-9.21,11.84c-3.94,4.27-5.53,5.63-4.72,4.09a44.89,44.89,0,0,1,2.83-4.28l2.56-3.52c.1-.15.27-.37.33-.47l.06-.14.11-.32.29-.69c.83-1.94,2.27-4.7,4-7.75l1.31-2.34.34-.6.08-.14,0-.09.05-.17.18-.67.77-2.7c.25-.89.5-1.74.73-2.53l.31-1.13.13-.51v-.37c0-.93-.12-1.54-.46-1.58s-.91.49-1.85,1.88c-.47.69-1,1.61-1.73,2.8l-.26.45-.36.57-.8,1.28-1.85,3,1.09-2.16.53-1.08.27-.53.13-.27.09-.21,1.26-3.35,1.24-3.28.59-1.61.46-1.42,1.74-5.57,1.23-4.87c-1.87,2.55-3.34,4.46-4.42,5.71a7.27,7.27,0,0,1-2.17,2c-.81.28-.49-1.34-.21-3a13.78,13.78,0,0,0,.28-2.24,1.73,1.73,0,0,0,0-.41c0-.15,0-.4,0-.55,0-.34-.15-.56-.33-.62-.38-.11-1.1.41-2.38,2l-.5.66-.49.53c-.35.39-.72.82-1.13,1.31-.83,1-1.79,2.2-2.93,3.71l-.58,2.16c-.2.73-.31,1.34-.58,2.15l-1.31,4.4-.58,2.06c-.21.7-.32,1.27-.61,2.06-.48,1.48-1,2.91-1.39,4.28s-.82,2.66-1.2,3.92l-.14.46a2.42,2.42,0,0,1-.19.52l-.55,1.23-1.07,2.37-2,4.49-.91,2.12-.43,1-.22.51a2.35,2.35,0,0,1-.34.64l-9.61,14.57c-1.51,2.32-3,4.62-4.53,6.93l-16,19.74L52.71,267.93l-.53.65-.27.32c0,.05-.1.12-.12.16l0,.06-.15.48-.32,1-.64,2-1.34,4c-.92,2.73-1.89,5.55-2.93,8.49-.2,1.51-.43,3.06-.69,4.68l-.1.61-.05.55-.1,1.12-.24,2.31c-.34,3.13-.79,6.51-1.37,10.21-.15.93-.3,1.88-.46,2.84l-.06.36v.3l0,.6,0,1.21c-.08,1.65-.18,3.37-.31,5.18s-.3,3.7-.5,5.7c-.1,1-.2,2-.3,3l-.07,2.68a62.11,62.11,0,0,0,12.79-12.49c3.7-4.65,7-9.6,10.28-14.5s6.61-9.79,10.3-14.45A109.38,109.38,0,0,1,88,271.53c.31,0,.61.06.9.09l.42.06.45,0a13,13,0,0,1,1.66,0,7.73,7.73,0,0,1,2.63.58,7.26,7.26,0,0,1,1,.56,3.5,3.5,0,0,1,.82.59A4.21,4.21,0,0,1,97,275.15a8.86,8.86,0,0,1,.43,2.49,18.21,18.21,0,0,1-.19,3,53,53,0,0,1-1.88,7.9c-3.78,11.35-11.62,28.53-18.88,45.2-3.63,8.33-7.13,16.53-9.94,23.79a143.19,143.19,0,0,0-6.21,17.05c-1.05,4.12-.9,6.42.91,6.06.9-.19,2.21-1,4-2.66a14.37,14.37,0,0,0,1.4-1.41l1.5-1.86c1.05-1.35,2.23-2.9,3.52-4.67,9.47-15.39,22.13-38.54,30.51-52.67,4.26-7,7.15-12,8.19-12.63.51-.32.54.44,0,2.5-.27,1-.68,2.39-1.25,4.11s-1.24,3.83-2.2,6.19c-4.34,8.9-8.84,17.72-13.35,26.61l-13.7,26.72c.19,1.59,1,1.68,2,.35a51,51,0,0,0,4.13-6.49c3.32-5.87,7.53-14.21,11.23-21.5L99.82,338l2.26-4.54c1.37-2.71,2.42-4.73,3-5.61s.63-.63,0,1.16-1.78,5.17-4,10.21c-2.29,4.87-3.82,8.26-5.1,10.47a43.75,43.75,0,0,1-2.68,4.38,17.39,17.39,0,0,0-3.08,5.52c-4.76,11.49-6.14,15.32-5.67,14.88s2.81-5.22,5.62-11.35c5.68-12.23,13.57-29.47,13.22-28L83,381c.32-.49.71-1.39,1.26-2.52a35.44,35.44,0,0,0,1.79-4.14c.66-1.69,1.31-3.4,2-5.12s1.3-3.81,1.94-5.67a91.12,91.12,0,0,0,2.8-9.83,25,25,0,0,0,.49-3.47,5.62,5.62,0,0,0,0-1.13,1.26,1.26,0,0,0-.35-.64L85.55,365C83,370.59,80.2,376.46,77,382.33a17,17,0,0,0,.22-2.46,6.79,6.79,0,0,0-.07-.85,3.94,3.94,0,0,0-.19-.72c-.33-.81-.91-1-1.77-.81a9.57,9.57,0,0,0-3.23,1.75,48.63,48.63,0,0,0-4.3,3.51c-.81.73-1.64,1.5-2.5,2.32l-2.53,2.34C60.94,389,59,391,57.3,392.65c-3.41,3.32-7.18,7.56-10,10.67l2.48-5.46,2.42-5.18c1.6-3.4,3.11-6.73,4.67-9.9a61.38,61.38,0,0,0-3.24,5.39c-1.55,2.76-3.24,5.89-4.12,7.78-1.41,2-1.64,2.19-1.19,1.3s1.55-2.92,2.95-5.44c2.77-5,6.76-12.17,8.43-15.57-.15-.15-2,3-4,6.67s-4.41,8-5.79,10.7a68,68,0,0,1,4.77-8.8,7.56,7.56,0,0,1,1-1.29,6,6,0,0,1,.92-.83,3,3,0,0,1,.86-.32,1.11,1.11,0,0,1,.75.29,5.08,5.08,0,0,1,1.3,2,7.64,7.64,0,0,1,.29.81c.09.3.18.65.26,1a10.7,10.7,0,0,0,.25,1.09c.09.38.16.77.24,1.18.19.85.3,1.7.43,2.75.06.51.1,1,.14,1.59s.13,1.07.17,1.63c.08,1.1.17,2.39.17,3.69s.1,2.61.06,4l-3.19,2.3a3.32,3.32,0,0,0,1.56,2.6,2.09,2.09,0,0,0,1.2.18,5.2,5.2,0,0,0,1.45-.47c2-.94,4.35-2.93,6.6-4.79a38.46,38.46,0,0,1,3.28-2.49,5.93,5.93,0,0,1,2.87-1.12,2.23,2.23,0,0,1,1.21.28,3.3,3.3,0,0,1,.54.42,3.45,3.45,0,0,1,.52.55,6.22,6.22,0,0,1,.88,1.81,14.76,14.76,0,0,1,.72,2.7c-.82.33-1.69.78-2.52,1.12a31.63,31.63,0,0,0,7.14,6,15,15,0,0,0,2,1.18l1,.6,1,.71c.7.31,1.42.6,2.14.89l2.12.95c2.77,1.42,5.85,2,8.76,2.94,1.46.45,2.9.95,4.36,1.38s2.89.87,4.32,1.3c5.94,1,11.27,3.26,16.32,5.41s9.31,6.2,13,11.24c3.85-10.25,9.22-7.86,14.7-6.83a16.36,16.36,0,0,0,4,.32,7.4,7.4,0,0,0,3.8-1.73c2.39-2,4.33-5.8,5.59-13.31a57.83,57.83,0,0,1,6.19,8.3c1.52,2.35,2.66,4.32,4,6.17a21.92,21.92,0,0,0,5.25,5.32,35,35,0,0,0,10.17,4.6c2.5-.2,4.55-6,6.55-12.11,1-3.11,2-6.4,3.16-9.27s2.3-5.37,3.7-6.8l.26,16.88,1-2.59,1-2.72,1.87-5.45,1.81-5.45,1.73-5.38c1.53,6.19,3.15,12.45,4.84,18.73,1.73-2.26,3.43-4.55,5.06-6.92-2.15,0-4.84-5.69-4.76-10.83,1.9-3,4-4.4,6.18-4.7a7.66,7.66,0,0,1,6.46,1.64,22.44,22.44,0,0,1,5.56,6.14,19.47,19.47,0,0,1,2.94,7.34c1.37-2.2,2.76-4.31,4.06-6.61s2.53-4.73,3.76-7.11c2.52-4.71,4.74-9.68,6.91-14.64,1,7.86-1.26,12.75-2.75,19.29,1.5-6.53,2.46-8.7,3.28-8.59s1.44,2.49,2.06,4.93,1.24,5,2,5.36,1.8-1.31,3-7.31c-1.93-3.44-1.65-11.75-2.28-15.75,6.23,8.53,15.27.19,19.72-11.48l2.6,14.72a39.82,39.82,0,0,0,8.9-8.45,123,123,0,0,0,7.76-12.67c5.05-8.91,9.47-19.12,14.22-28.51-3.25.15-7.25-6.1-10.29-13.28s-5.22-15.26-4.63-18.91q5.34,9.35,10.87,18.64c-2.23-8-3.88-8.62-5.42-10.05s-2.95-3.65-5.24-14.71c3.95-3.87,14,19,15.09,29.45q.22-3.76.4-7.51l.15-3.75.08-3.84c3.47,5.57,4.19,10.72,7.95,19-2.38-8.08,2.15-6.6,6.5-6.62s8.21-2,2.93-15.21l3.87,5.29a126.53,126.53,0,0,0,5.6-15.08c.76-2.38,1.42-4.7,2-7,.29-1.15.57-2.29.83-3.41l.39-1.69c.13-.56.19-1.22.28-1.82.7-4.92,1.3-9.69,2.05-14.48.35-2.46.74-4.93,1.2-7.44s1-5,1.58-7.75c-6.56-7.1-8.62-11.82-10.25-16.76s-2.86-10.3-7.84-18.2a44.83,44.83,0,0,1,3-3.6c1.08-1.23,2.23-2.45,3.43-3.72s2.46-2.59,3.72-3.91,2.6-2.79,3.87-4.32a37.14,37.14,0,0,0,6.41-10.87,49.62,49.62,0,0,0,3.53-14c-2.6-8.91-5.67-11.17-9.06-12.76s-7.11-2.4-11.19-7.08a11.76,11.76,0,0,0,8.56.16,24.07,24.07,0,0,0,5.95-3.72c1.72-1.31,3.25-2.38,4.86-2.28s3.31,1.33,5.3,4.8c.17-1.55.33-3,.48-4.43s.33-2.68.49-3.93c.31-2.52.58-4.84.79-7.05l.08-.82,0-.41v-.17l0-.67c0-.44-.07-.88-.13-1.33a24,24,0,0,0-.52-2.72,38.24,38.24,0,0,0-2.19-6.2c-1-2.33-2.42-5.29-4.09-8.92-6.14-1.18-9.25-.68-13.7-3.24-.69-1.51,1.29-2.19,4.21-2a29.13,29.13,0,0,1,10.08,2.87l1.19,1.07c-1.89-2.4-2.52-4.53-2.13-6.13a4.38,4.38,0,0,1,1.26-2.05,6.6,6.6,0,0,1,1.05-.8,1.92,1.92,0,0,1,.57-.22,1.8,1.8,0,0,1,.59-.11c.2,0,.41,0,.61,0l.6.13a2.79,2.79,0,0,1,.59.26l.3.15-1.62-1.06-1.95-1.34-1.87-1.31c-1.09-.75-2.16-1.52-3.23-2.33l-.78-.59-.68-.5-1.35-1-2.49-2a79.31,79.31,0,0,1-7.1-6.49l-.63-.68-.57-.64c-.35-.38-.69-.78-1-1.2s-.55-.66-.81-1L335,98.4c-.42-.65-.66-1-.91-1.47-.09-.15-.17-.3-.25-.46l-.05-.13,0,0v0c-.21-.46.29.62.24.51h0l0-.08a2.25,2.25,0,0,1-.17-.45,1.07,1.07,0,0,1,.05.23v0s0,.13,0,.18a3.12,3.12,0,0,1,.06.41l.07,1a9.33,9.33,0,0,1,0,1.3,12.42,12.42,0,0,1-.15,1.77c-.1.47-.17,1.29-.31,2-.07.35-.15.68-.23,1l-.14.48-.13.57a44.06,44.06,0,0,1-1.45,4.49c-.29.77-.62,1.44-.93,2.18s-.65,1.48-1,2.17c-.73,1.34-1.37,2.73-2.12,3.91.22-.36.43-.72.64-1.1-1,1.72-1.92,3.28-3,4.72-.49.69-.89,1.3-1.36,1.91L322.6,125l-.53.64c-.17.19-.42.46-.48.54-.21.24-.41.47-.61.68l-.14.14h0l.31-.29.45-.4.18-.14.07-.06,0,0h0L319.62,128h0l-.05.08a6.61,6.61,0,0,1-1.25,1.31c-.51.43-1.12.86-1.78,1.32l-.51.35-.13.08-.07.05,0,0h0c-5.46,4.61,7.44-6.26,6.11-5.14h0l-.05,0-.2.16c-.54.46-1.12,1-.08.07l.33-.27c3.58-3-31.15,26.25-16.44,13.86h0l0,0,.06,0,.11-.07.22-.14.45-.28c.58-.36,1.13-.68,1.66-1s1-.54,1.5-.76.88-.39,1.28-.54a10.83,10.83,0,0,1,2.07-.59,5.13,5.13,0,0,1,1.41,0c1.46.33,1.4,1.64.94,3.07s-1.2,2.9-.74,3.93,2.12,1.78,6.62,2.29c-10.49,4.38-15.51,6.94-17.45,9.15s-.72,4.13.92,6.66,3.69,5.5,3.47,8.56-2.75,6.1-10.11,8.09h10.69c5.12,1.62,3.57,2.38.37,2.9s-8,.78-9.27,1.63c8.28.44,9.79-2.19,15.44,0,2.75,6.23,2.5,13,.43,19.55-2.17,7.09-6.21,14.47-11.08,22.18-1.22,2-2.49,3.93-3.79,5.89l-2,3.06-.25.39-.31.68-.63,1.41-1.24,2.81c-1.67,3.78-3.26,7.62-4.91,11.52l-2.47,5.89c-.79,2-1.55,4-2.32,6l-2.3,6.07-1.14,3.07c-.37,1-.67,2.05-1,3.08-1.29,4.11-2.56,8.27-3.78,12.48s-2.13,8.38-3.11,12.62l-.73,3.18c-.2,1-.37,2.1-.55,3.15-.36,2.1-.69,4.21-1,6.31a12.26,12.26,0,0,0,.11,4.06,6.4,6.4,0,0,0,1.43,3,11.4,11.4,0,0,0,5.81,3.39c4.79,1.35,11,1.15,16.53,1.2s10.38.26,12.35,2.51,1,6.49-4.24,15.16c-3.31.27-6.64.47-10,.62s-6.75.24-10,.22c.82,1.1,1.74,2.12,2.56,3.18s1.61,2.13,2.34,3.2,1.43,2.15,2.09,3.25,1.24,2.2,1.92,3.26q1.95,3.21,3.55,6.53c.54,1.11,1,2.23,1.54,3.34s1.1,2.17,1.61,3.27c1,2.2,2,4.45,2.81,6.73l.31.86.38.82.74,1.64c.48,1.11.95,2.22,1.4,3.33L307.5,385c.44,1.14.87,2.27,1.35,3.38s1,2.18,1.46,3.28,1,2.18,1.53,3.25a101.22,101.22,0,0,0,7.1,12.48,31.61,31.61,0,0,0,2.13,2.89c.74.95,1.47,1.9,2.26,2.82s1.57,1.85,2.41,2.71l2.66,2.49a45.44,45.44,0,0,0,27.05,12c-4.48,2.47-8.05,7.21-11.08,4.93a11,11,0,0,0,.59,5.37,10.63,10.63,0,0,0,2.84,4,13.87,13.87,0,0,0,2,1.49,12.66,12.66,0,0,0,2.4,1.06,19.65,19.65,0,0,0,5.43,1,25.73,25.73,0,0,0,5.68-.31,24.63,24.63,0,0,0,5.39-1.65,15.93,15.93,0,0,0,7.51-6.2c2.33,1.59,1.41,4-.05,6.88s-3.47,6.1-3.09,9.42c1,2.56,3.32,3.27,6.13,3a23.9,23.9,0,0,0,4.47-.95c.77-.23,1.55-.49,2.32-.75l2.33-.92c3.07-1.21,5.87-2.33,7.84-2.28s3.14,1.24,2.95,4.8c-.08,2.33-4,3.9-5.91,4.61,2-1.33,4.5-1.59,7.15-1.48s5.52.34,8.13.33,5-.55,6.66-2,2.61-3.92,2.54-8A14,14,0,0,0,420,454a14.22,14.22,0,0,0,2.43.83,18.9,18.9,0,0,0,5.1.52,45.81,45.81,0,0,0,10.37-2c1.69-.48,3.35-1,5-1.33a29.31,29.31,0,0,1,4.68-.85,11.83,11.83,0,0,1,8.49,2.27c2.29-4.88,4.78-7.12,7.41-8.07s5.4-.74,8.08-.75,5.22-.36,7.16-2.31a10.24,10.24,0,0,0,2.35-4.38,31.64,31.64,0,0,0,1-8c.16,6.84,1.78,11.12,4.44,13.43s6.28,2.5,10.1,1.35a22.36,22.36,0,0,0,5.69-2.9c.93-.63,1.84-1.32,2.73-2.06s1.72-1.63,2.52-2.5a35.62,35.62,0,0,0,4.25-5.64,29.34,29.34,0,0,0,2.75-6.2c-.37,4.64,2,5.71,4.48,7.12s5.15,3.07,5,9.43a41.69,41.69,0,0,0,7.12-5.38,25.36,25.36,0,0,0,4.87-6.82A15.43,15.43,0,0,0,537.2,426a16.4,16.4,0,0,0,.21-4,18.54,18.54,0,0,0-2.8-8.3c7.17,4.21,12.7,3,16.75-.42a25.74,25.74,0,0,0,5-6.59,79.66,79.66,0,0,0,3.58-7.92c1.11-2.56,2-5.25,3-7.39a12.13,12.13,0,0,1,3.91-5c3.24-2.16,8.14-1.59,16.8,3.22l1.44-3.43c.46-1.15,1-2.22,1.35-3.42q1.18-3.46,2.37-6.9c1.54-4.51,3.1-8.76,4.48-13q1-3.14,2-6.25l.24-.77a.48.48,0,0,1-.06-.43l.07-.32.26-1.29.51-2.53c.72-3.34,1.31-6.68,2-9.9.5-3.13,1-6.15,1.48-9.12l.78-4.4c.22-1.44.45-2.88.67-4.32.45-2.85.92-5.64,1.43-8.38-.18-1.48-.29-3-.33-4.48,5.17,3.31,7.62,5.57,8.78,7.22a4.86,4.86,0,0,1,.92,2.12l0,.12c0,.06,0,.17-.06.25l-.14.52-.33,1.05c-.23.69-.49,1.39-.74,2.08-1,2.77-2,5.51-1.25,8.33s2.95,5.74,8.64,8.83a50.21,50.21,0,0,0,0-8.93c-.22-2.91-.6-5.74-1-8.49l-.17-1-.43-.52-.86-1.07c-.57-.71-1.12-1.44-1.66-2.18a49.73,49.73,0,0,1-2.93-4.48,39.42,39.42,0,0,1-2.33-4.1,14,14,0,0,1-1.21-3.73c-.38-2.3.22-4.17,2-4.78,1.61.39,3.42,2.83,5.27,5.43s3.72,5.36,5.23,7.07a12.7,12.7,0,0,1-1.55-6.82,11.91,11.91,0,0,1,1.28-3.95,9.31,9.31,0,0,0,.82-4.6A61.43,61.43,0,0,0,618.58,288c1.28,2.86,2.49,6.54,3.41,9.27-.11-2,2.72,2.46-3.46-11.73.42,1.67.86,3.32,1.31,4.93a146,146,0,0,1-6.9-15.2c-2.14-5.49-4.06-11.42-5.72-17.4s-3.11-12-4.36-17.31-2.36-10-3.43-13c3.8,12,6.26,17.84,8,21.16a17.25,17.25,0,0,0,3.82,5.18c1.09,1.19,2.27,2.89,4.3,8.35s4.88,14.73,9.64,30.06c-.43-1.82-1.21-4.87-2.33-8.9s-2.57-9-4.38-14.49c.74.95,1.64,3,2.81,6.62s2.59,8.74,4.46,15.58c-.85-5.67-2.45-12.79-3.82-18.94-1.58-7.28-2.83-13.4-1.91-15.75,2.24,9.14,2.82,13.5,5.42,24.32-2-9.51-3.78-19.49-4.66-26.76s-.77-11.83.79-9.74c1.09,6.23,2.77,13.63,2.37,14.53.37-2.26.2-7.32-.09-13.76s-.71-14.24-.79-21.59.18-14.22,1.3-18.3,3.16-5.24,5.89-.67c.18,13.14.7,20.72,1.16,25.33a29.58,29.58,0,0,0,1.55,7.88c1.1,3,2.5,5.35,3.43,27.83.78-4.58,1.76-9,2.91-13.29-.21-3.66-.44-7.34-.71-11s-.57-7.31-.9-11c1.86.52,3.7-7,5.82-12.52s4.33-8.86,5.35-.69q-2.18,8.06-4,16.53a31.77,31.77,0,0,1,6.77-4.05c-.4-6.31-1-12.74-1.93-19.12a120.7,120.7,0,0,0,3.48-16.48c.86-5.76,1.46-11.49,2-16.13s1-8.17,1.66-9.46c.34-.65.71-.71,1.17-.07a13.1,13.1,0,0,1,1.54,4.2c-.89,1.55.23,2.82,1.38,7a44.42,44.42,0,0,1,1.27,8.92c.11,2,.15,4.22.09,6.77s-.27,5.46-.59,8.7c0,0,0,0,0,.09,1.9-5.33,4.09-10.7,5.71-12.87.82-1.1,1.55-1.44,2.1-.67s.81,2.7.83,6c-1.11,6.55-3.67,16.74-6.08,26.48s-4.67,19-5.47,23.25c2-7.5,3.56-11.19,4.72-12.92s2.1-1.62,2.93-1.45a3,3,0,0,0,1.37,0,3.48,3.48,0,0,0,1.65-1.26c1.31-1.55,3-4.77,5.63-11.34-2.57,5.83-8.07,23.53-9.12,27.41q3.84-10.56,7.82-20.67c-1.65,9.53-2.81,13.06-7.46,26.2.05,4.73,3.44-5.53,6.33-14.2a86.85,86.85,0,0,1,3.39-9.43c.67-1.19.75.46-.32,6.79-.78,1-1.88,4.37-3.32,6.19-.34,4.19-.15,6.34.44,7.64a3.74,3.74,0,0,0,1,1.46,13.65,13.65,0,0,0,1.21.95,4.53,4.53,0,0,1,1.9,3c.31,1.63.19,4.14-.78,8a91.85,91.85,0,0,1-5.8,10.85c-1,1.5-1.37,1.43-1.64,1.25s-.52-.44-1.31.76a93,93,0,0,0-4.69,9.51c.65.69,1.89.31,3.35-.11a12.76,12.76,0,0,1,4.62-.75,4.1,4.1,0,0,1,3.52,2.58c.74,1.66.92,4.22.18,7.61l1.37-3.48c8.59-9,6.42-3.83,3.16,2.11-1.62,3-3.55,6.19-4.51,8.42s-1.06,3.55,1,3.35c-1.31-.42-9.59,6-7.67,4.75-1.29,4-.12,5.82,2.31,8.37l2.07,2c.76.74,1.61,1.54,2.48,2.46L676,323.6l.71.78.09.1.05,0,0,0a.23.23,0,0,0,0-.07s0-.17,0-.13l.06.09.12.19.47.74c1.22,2,2.56,4,3.89,6.05q-2.6-.49-5.2-1.1c-1,4.15,0,9.3,2,14.47s4.81,10.34,6.94,15c2.75-.05,4.72,1.06,6.58,1.32s3.18-.32,4.69-3.54c-.63,9.16,4.92,16.82,12.54,20.32a29.15,29.15,0,0,0,11.92,2.69,30.22,30.22,0,0,0,5.9-.41c1-.15,1.9-.32,2.83-.51s1.8-.49,2.68-.75,1.75-.52,2.58-.82l2.42-1c.79-.33,1.6-.62,2.33-1l2.19-1.06c1.47-.66,2.8-1.41,4.15-2s2.62-1.29,3.93-1.82a27.47,27.47,0,0,1,17-2c-2.08,1.33-3.88,6.09-2,5.09A148.44,148.44,0,0,0,778,361.62c-2.24-2.25-3.2-2.76-4.29-3a15.39,15.39,0,0,1-5.06-1.28c-.19-4.36,2-9.2,5.18-11.35-1.79,3.66-.43,5.8,2,7.07s5.75,1.72,7.94,2.23c-1.46-1.26-1.75-3.6-3-5,6.35,2.12,4.92-.65,3.59-3.93s-2.58-7.1,4-7.33l1.24,2.89a60.47,60.47,0,0,0,3.21-6.27,9.79,9.79,0,0,1,4.44-4.85c5.25,4.25-1.9,5.1,1,9.75,2.47-2.05,3.23-6.51,4.44-10.1s2.87-6.37,7-5.62a17.28,17.28,0,0,1-2.69,4.24,16.52,16.52,0,0,0-2.72,4.24c4.7,1.17,6.9,1.17,8.47.65s2.55-1.52,4.73-2.56l-.46.16c3.51-1.41,6.93-3,10.38-4.64l-3.29.36c-.8-4.43-.47-7.31.41-9.57a13.49,13.49,0,0,1,4.11-5.2,33.71,33.71,0,0,0,5-4.87,15.62,15.62,0,0,0,2-3.37,17.29,17.29,0,0,0,1.21-4.57c-1,6.76-.54,8,.67,8.21s3.06-.78,4.76,1.76c3.12-.76,7.38-2.6,7.64-.48a5.87,5.87,0,0,1,1.55-3.87,17,17,0,0,1,2.92-2.24c2.1-1.45,4.23-3.34,4.29-8.54,1.48.94,3.75-4.33,6.13-.5.85-1.62,1.05-2.49.88-2.89s-.69-.32-1.36-.1c-1.38.4-3.34,1.32-3.94.37a17.12,17.12,0,0,1,4.26-7.8c1-1.15,2.22-2.22,3.39-3.38l3.63-3.57c.61-.61,1.23-1.24,1.84-1.89a21.44,21.44,0,0,0,1.75-2,40.87,40.87,0,0,0,3.1-4.55c.48-.81.92-1.64,1.33-2.5a23.26,23.26,0,0,0,1-2.73,29.9,29.9,0,0,0,1.23-6,33.31,33.31,0,0,0,1.05-4.55c.25-1.4.43-2.69.57-3.88s.23-2.3.3-3.36.06-2.09.09-3.1a48.23,48.23,0,0,1,1.69-13.44c1.55-1.47,2-.36,2.23,1.12a20.24,20.24,0,0,1,0,3.37c3.76-5.28,5-9.79,6.6-15.5.18,1.43,1.27.61,2.84-.49a8.27,8.27,0,0,0,.54-4.29,3.89,3.89,0,0,1,.38-1.87,9.4,9.4,0,0,1,2-2.69,30.58,30.58,0,0,1,.33,5.62,69.85,69.85,0,0,1,2.85-7.52,28.18,28.18,0,0,1,4.41-6.92c.86-.11.5.77-.12,1.9l-.95,1.9a8.1,8.1,0,0,0-.71,1.76,44.12,44.12,0,0,1,6.58-8c2.46-2.49,4.92-4.29,5.53-5.3l-1.9.77-1.87.86c2-1.26,1.53.35.28,1.5a28.39,28.39,0,0,1-2.55,2.38,9.43,9.43,0,0,1-2,1.32,3.6,3.6,0,0,1-2.36.44c.87-1,1.87-1.93,2.84-2.88-2.56-.06-6,2.61-8.53,6.54a43.57,43.57,0,0,0-3.34,6.35c-.94,2.2-1.79,4.31-2.77,6.09a45.29,45.29,0,0,1-1.3-4.78,53,53,0,0,0-1.44,8.95c-1.6,1.19-4.27,1.33-2.82-2.62-4.61,4.52-1.12,5.39-5.43,9.12-.58.37-.66.05-.59-.5q-.71,2.92-1.29,5.87c-.39-1.43-3.38-.4-1.19-3.39a26.23,26.23,0,0,0-5.45,11.59,17.67,17.67,0,0,1-1.38,4.25,4.17,4.17,0,0,1-2.82,2.31l.14-.89a41.62,41.62,0,0,0-1.47,3.9,8,8,0,0,0-.55,2.24,1.64,1.64,0,0,0,1.09,1.78c1.28.68,3.08,1,2.41,7.19a110.32,110.32,0,0,1-13.32-.21l2.91,3.79c-.95,1.14-3.15,3.14-4.31,1.58-.45,3.08.12,3.25.84,3.15s1.62-.47,1.84,1.76a11,11,0,0,0-2.75,1.55,12.19,12.19,0,0,0-1.23,1.05c-.42.35-.83.73-1.22,1.12-1.58,1.57-3,3.39-4.35,5-2.81,3.18-5.58,5.49-9.28,3,.6,2.35,2.38,1.73,3.59,1.4s1.87-.34.25,3.45c-4.13-2.5-5.49-.83-6.74,1.83a23.19,23.19,0,0,1-2.19,4.17,6,6,0,0,1-4.33,2.47c-2-5.27,4.54-7-3.58-6.39,1.48,4.48-1.18,6.29-4.79,7.19s-7.9,1.17-9.55,3.41c2.31,3.06.46,5.5-2.76,8-1.62,1.26-3.57,2.55-5.48,4a28.35,28.35,0,0,0-5.34,4.86c-.59-1.31-4.85.21-10.2,2.14-2.65,1-5.59,2.07-8.44,3a56.15,56.15,0,0,1-7.93,2.15l-.66-1.42c1.9,4.31.72,7.29-1.5,9.84s-5.54,4.66-7.68,7.17c-3-5.11-3.41-7.6-1.77-11.57l-2.64,1.55-2.51,1.44c.56,3.33-.09,5.68-2.7,8.42q-1.32-3.62-2.69-7.16c-3.08,1.8-5.05,5.22-7.65,8a18.11,18.11,0,0,1-2,1.85,10.12,10.12,0,0,1-2.33,1.27,7.5,7.5,0,0,1-2.61.36,6.87,6.87,0,0,1-2.76-1,27.9,27.9,0,0,0,2,6.37c1,2.27,2.18,4.63,3.17,6.94a14.56,14.56,0,0,1,1.5,6.82,7.38,7.38,0,0,1-1.12,3.31,10.76,10.76,0,0,1-3.26,3c-1.13-4-2.25-11.05-.09-13.14-.36.34-.95,1.31-1.74,2a2,2,0,0,1-2.71.21,46.25,46.25,0,0,0,2.77-7.33,2.83,2.83,0,0,0-1.19-.47.7.7,0,0,0-.67.27,5,5,0,0,0-.56,2.13c-.22,1.79-.42,4-2,3.59a10.27,10.27,0,0,0-1-5c-.44-.92-.72-1.79-.43-4.14.26-.22.72.39,1.26.82s1.16.66,1.54-.57a6.1,6.1,0,0,1-3.42-3.59,8.75,8.75,0,0,1-.6-3,14.26,14.26,0,0,1,.26-3.38c-.81,3.45-1.93,8-3.76,8.19-1.91-.72-1.22-2.66-.12-4.71l1.75-3.24.78-1.53c.23-.5.46-1,.63-1.42a4.28,4.28,0,0,1-1.42,1.3c-.33.07-.56,0-.91,0a4.43,4.43,0,0,0-1.63.68,28.77,28.77,0,0,0-3.79,3c-.4-.46.26-1.61,1.23-2.73s2.29-2.38,3.23-3.33a2.4,2.4,0,0,1-1.48,0,3.18,3.18,0,0,1-1.36-.75c-.89-.67-1.7-1.73-2.63-2.61a6.34,6.34,0,0,0-1.5-1.19,4.24,4.24,0,0,0-1.82-.62c-1.36-.11-3.1.42-5.26,2.29l-.37,1.09c-.24-.08-.31-.26-.58-.37v0a11,11,0,0,1-5.76-7.62,13.53,13.53,0,0,1-.35-2.38c0-.41,0-.82,0-1.22v-.93a2.94,2.94,0,0,0,0-.51,52.38,52.38,0,0,1,.84-6.94c.76-4.76,2.28-10.17,3-15.41.4-2.63.55-5.15.75-7.7a19.73,19.73,0,0,0-.58-6.75l4-2.86a33.09,33.09,0,0,1-2.27-7.26c-.28-1.28-.52-2.59-.77-3.85s-.51-2.48-.79-3.63a10.32,10.32,0,0,0-2.6-5.25c-1.19-1.14-2.77-1.43-4.93-.59,0-1.37,1.74-5.18,4.09-9.38s5.24-8.7,7.57-11c-1.51-2.41-3.58-1.82-4.36-3.44-.4-.8-.53-2-.25-4.29s1-5.6,2.17-10.44a8.84,8.84,0,0,0,5.31-5c.44-1.05,0-.35.18,5.6.5-3.6,1.21-7.11,1.76-10.08a51,51,0,0,0,1-7.61c0-3.81-2-4.77-7.07-1.87a35.86,35.86,0,0,0,7.22-16.92,16.73,16.73,0,0,0-.21-6,5.09,5.09,0,0,0-.35-1,2.36,2.36,0,0,0-.51-.57,1.39,1.39,0,0,0-1.22-.3c-.55,2.68-1.11,5.32-1.75,8.05s-1.37,5.61-2.1,8.39a7.35,7.35,0,0,1-1.22-2.37,14.07,14.07,0,0,1-.87-2.85,31.78,31.78,0,0,1-.53-3.45c-.12-1.3-.24-2.59-.35-3.88q4.82-8.67,9.82-17.33c.64-5.12.62-8.88,0-11.48a11.23,11.23,0,0,0-1.13-3.19,3.61,3.61,0,0,0-.37-.58,5.58,5.58,0,0,0-.46-.39,4.58,4.58,0,0,0-1-.56,6,6,0,0,0-2.19-.45c-.39,0-.76,0-1.14,0a9,9,0,0,0-1.16,0,18.66,18.66,0,0,0-2.33.33c-.2,0-.39.07-.58.12l-.63.21-1.22.42c-1.61.5-3.09,1-4.35.7a3.93,3.93,0,0,1-1.73-.74,3.71,3.71,0,0,1-.72-.71,6.25,6.25,0,0,1-.71-.86c-.88-1.34-1.45-3.45-1.73-6.82a98.66,98.66,0,0,1,.15-14,12.34,12.34,0,0,0-2.34,6.67,41.36,41.36,0,0,0,.42,6.67,32.45,32.45,0,0,1,.22,7.22,21.61,21.61,0,0,1-2.71,8.16c-.75-2.33-1-6.23-1.24-10.67s-.34-9.41-.48-14.15-.36-9.17-.61-12.56-.66-5.67-1.1-6.14a9.81,9.81,0,0,0-2.31-4.23,2.34,2.34,0,0,0-2.57-.15c-1.71.85-3.36,3.34-5.06,5.83s-3.32,5-5,6.08a2.78,2.78,0,0,1-2.7.33c-.94-.37-1.85-1.39-3-3,.47,6.81-1.14,23.87-8.14,24a19.56,19.56,0,0,1-3.39-7.61,44.64,44.64,0,0,1-1.38-10c-.23-6.76,1-13.06,3.78-14.37,1.86.52,2.54,2.88,2.24,4.81a6.32,6.32,0,0,0,3.68-2.12c.87-1.25,1.27-3.54.19-7.55l-1.67,5.41a15.43,15.43,0,0,0-1.43-2.84,29.74,29.74,0,0,0-2-2.69,10.77,10.77,0,0,0-1.11-1.21l-1.15-1.1c-.76-.74-1.54-1.45-2.28-2.14a21,21,0,0,1-2-2.13A10.28,10.28,0,0,1,653.67,93a6.7,6.7,0,0,1,0-5.52,6.83,6.83,0,0,0-3.45,2.92,4.16,4.16,0,0,0-.29,3.25A10.45,10.45,0,0,0,651.86,97a34.41,34.41,0,0,0,3.08,3.59c-.64-.76-1.28-1.46-1.9-2.09a12.63,12.63,0,0,0-1.86-1.66,22.82,22.82,0,0,0-3.66-2.11,16,16,0,0,0-7.09-1.48c-1.18,0-2.36,0-3.59-.1L635,93c-.63,0-1.27,0-1.91,0a20.38,20.38,0,0,1-4.06-.48c-.35-.06-.72-.19-1.08-.22s-.72-.09-1.09-.16c-.73-.12-1.51-.31-2.28-.49,2.14,2.76,4.18,9.11,2.31,9.38-4.41-1-6.88-.17-8.27,1a5.85,5.85,0,0,0-1.51,2.36,14.51,14.51,0,0,0-.64,3.15c-.27,2.26-.34,4.78-.84,7.27a20.85,20.85,0,0,1-2.91,7.35c-1.18-1.31-1.9-3.81-2.36-6s-.69-4.67-.94-6.4-.5-2.84-1-2.65-1.32,1.67-2.39,5.31c-2.17-1.43-3.09-5.74-3.32-10.36a72.89,72.89,0,0,1,.68-12.72c-1,4.15-2.14,6.39-3.52,7.22s-2.88.28-4.49-.94-3.3-2.87-4.88-4.3-3-2.58-4.1-2.54c.71-2.86,1.46-5.66,2.24-8.42-1.41,5-3.06,6.08-4.84,7.36,1.82,4.47,3.52,9,5.2,13.38a10.66,10.66,0,0,0-1.68-.43,5,5,0,0,1-1.48-.43c-.92-.52-1.71-1.75-2.44-4.93.12,5.88,2.06,11.9,3.78,18.55a91.06,91.06,0,0,1,3.39,23.07c-1.14-1.39-2-.64-2.74.79s-1.4,3.61-2.18,4.73c-1.22,1.78-2.8,1.22-5.89-7.44a3.48,3.48,0,0,0,2.88-3.34c.33-3.16-1.74-8-3.44-13.13s-3-10.66-.41-14.89c-.48,2.48-1.33,4.06-2.66,4.75a4.13,4.13,0,0,1-2.69.26,11.73,11.73,0,0,1-.72-6.5c-1.78-1.26-3.11-1.78-4.06-1.71a1.14,1.14,0,0,0-.63.24,2,2,0,0,0-.5.5,4,4,0,0,0-.63,1.54c-.53,2.5.1,6.72.95,11.53s1.92,10.21,2.3,15.08a33,33,0,0,1-.06,6.77,19,19,0,0,1-.63,3,10.94,10.94,0,0,1-1.17,2.62c-1.7-6.79-4.21-11.69-6.47-14.25s-4.21-2.8-4.43-.44c3.71-5.25,9,17.27,10.12,31a2.55,2.55,0,0,0-1.37.21,3.68,3.68,0,0,0-1.07.63,4.8,4.8,0,0,0-1.36,2.12,16.75,16.75,0,0,0-.52,6.29c.27,4.68,1.33,9.56,0,11.64,1.5-.64,3-1.11,4.37-1.58,2.19,6.59,2.68,10.52,2.5,14.14s-1,6.81-1.39,11.58c-4.69-7.61-.63-11.5-3.5-12.85,1.68,6.53,1.55,9.47.32,10.74a3.92,3.92,0,0,1-2.47,1,23.32,23.32,0,0,1-3.41-.06c-2.44-.16-5.09-.2-6.95,1.26s-3.13,4.23-2.36,9.62c-3.23-.34-6.37-4.15-9.28-7.88s-5.58-7.31-8.18-6.58c.64,6.39.05,9.76-1.27,11.77s-3.35,2.66-5.48,3.37c-.54.17-1.08.35-1.61.56s-1.12.39-1.67.64a9,9,0,0,0-3,2.14c-1.79,2-3,5.26-2.88,10.83,6.09,2.13,8.51,2.67,10.09,4.87s2.22,6.18,5.06,15c.47-4.7,1-9.34,1.68-14.18l1-7.31c.33-2.48.52-5.1.8-7.69,2.53,10.18,4.8,19.34,7.62,28,1.47-3,1.5-7.64,1.56-12s0-8.55,1.6-9.64c2.37,7.65,3.16,10.41,4.39,12.13s3,2.25,7.34,5.16c-4.27-1.93-6.3-1.1-7.27.87s-.72,5.18-.26,8.45,1.09,6.61.73,9.12-1.73,4.21-5.43,4.51l-25.88-19.29a18.39,18.39,0,0,0-9,10,26.56,26.56,0,0,0-1.29,6.59c-.08,1.13-.16,2.37-.13,3.48l.72,2.21c1,3,2.13,6.32,2.13,9.23a6.73,6.73,0,0,1-4.5,6.7c2.26.05,4.55-.11,6.85-.2,2.52,2,3.6,3.51,3.86,4.69a2.52,2.52,0,0,1-.17,1.58,4,4,0,0,1-1,1.18c-1.6,1.47-4.2,2.49-3.2,5.55a55.62,55.62,0,0,0-5.81-3.94c-1.76-1-3.24-1.92-4.66-2.69-2.83-1.57-5.26-2.8-8.1-4.63,3.2,2.49,2.46,3.17,2.88,5.08s1.91,5.17,9.18,13.43a97.16,97.16,0,0,1-11.8-8.44c-1.77-.26-1.63,1.31-.74,4.13s2.53,6.76,4,11a61,61,0,0,1,3.29,12.11c.42,3.5-.11,6.17-2.14,6.56-1.66-6.54-4.17-11-6.12-15.41a53.17,53.17,0,0,1-4.35-13.53c-1.25.93-3.12-.23,0,7.26-1.84-3-1.17,1.26-1.15,5.46s-.56,8.19-2.89,3.08c.36,2.82,1.28,7.38,1.75,11.33s.43,7.3-.95,7.56a38.46,38.46,0,0,1-1.26-6c.63,3,.13,5.65-.08,9.09a29.3,29.3,0,0,0,2.48,13.89,60.4,60.4,0,0,0-5.12-9.33,10.21,10.21,0,0,0-4.08-3.8,4.8,4.8,0,0,0-3.7.08,11.68,11.68,0,0,0-1.86,1c-.63.37-1.26.77-1.9,1.2-2.53,1.72-5.29,3.47-7.49,2.56-1.09-.48-2-1.66-2.63-3.84a33.08,33.08,0,0,1-.67-10.11,47.81,47.81,0,0,1-9.19,7.43,24.71,24.71,0,0,1-9.21,3.66c2.07-4.27,2.95-7.14,3.19-5.6-.18-3.45-1.41-2.68-3.52.24s-5,7.86-8,12.78-6.15,9.78-8.72,12.31-4.62,2.78-4.9-1.53A51.33,51.33,0,0,1,425.46,347a10,10,0,0,1,3.69-3.67c2-.95,3-.2,4.19-4.78,12-23.31,10-22,5.59-18.85-2.19,1.58-5,3.57-6.35,3.39s-1.21-2.53,2.95-9.3c.89-.67,1.76-1.33,2.64-2,2.25-4,2.4-5.16,1.22-4.84s-3.71,2.08-6.66,3.95a50.71,50.71,0,0,1-8.86,4.78c-2.58.94-4.41.85-4.21-1.07,0,0,3.53-2.89,5.9-5.31-10.56,7.5-18.24,10.06-23.89,10.06a18.13,18.13,0,0,1-7.22-1.47,31.14,31.14,0,0,1-5.35-3.15c8.16-3.44,10.36-4,12.55-5s4.37-2.44,12.5-7.9c-1.27-.53-7.83,3.45-14.7,7.28s-14.12,7.42-16.55,4.82c4.39-3.56,8.4-7.51,13.68-11.46a103.76,103.76,0,0,1,20.35-11.83c.33,1.34.59,2.64,1,3.92,11.29-6.86,11.13-7.57,8.58-7.68-1.26,0-3.13.11-4.39,0s-2-.47-.95-1.36l9.89-3.39c-.76-1-2.85-1.21-5.53-1.3s-6,0-9.06-.1-6-.43-8-1.34-2.92-2.41-2.2-4.67c-2.49.59-5,1.22-7.47,1.88C393,276,391,275.12,391,274.31s2-1.61,4.13-2.33,4.5-1.42,5.24-2.19-.11-1.6-4.27-3q12.15-.84,24.23-1.15a68.68,68.68,0,0,1-12.93-7.94c-1.22-1-2.43-2-3.57-3.13l-.84-.83c-.27-.31-.52-.7-.77-1.05-.5-.71-1-1.42-1.44-2.12a31.69,31.69,0,0,1-3.92-7.9,64.77,64.77,0,0,1,10.63,6.67c1.54,1.19,3,2.42,4.33,3.62.68.6,1.35,1.21,2,1.82a10.08,10.08,0,0,0,1.93,1.63c5.2,3.35,9.64,5.94,14.63,7.63.28-1,.14-2.75-1.41-4.77-.2-.25-.42-.51-.67-.77-.21-.44-.42-1-.68-1.45a15.88,15.88,0,0,0-8.15-7.43c1.87,2.35,7.09,5.84,3.17,7C405.42,247.41,398,238,400.13,228.41c11.21,2.49,17.82,2.27,22,.49a11.37,11.37,0,0,0,4.7-3.8,17.47,17.47,0,0,0,1.49-2.51c.21-.44.42-.89.61-1.35s.38-1,.56-1.48c3-8,4.35-17.5,22.47-20.13-7.49-11.3-5.15-21.29-1.77-33A139.57,139.57,0,0,0,454.84,148a48.82,48.82,0,0,0-1-21c-8.23,4.23-12.62,5.6-15,5.76s-2.7-1.06-3.18-2.5-1-3.11-3.7-3.84-7.43-.43-16.25,1.95c-1.76-2.55-2.73-4.36-2.91-5.7a2.46,2.46,0,0,1,1.4-2.76,132.8,132.8,0,0,0,14-25.61c3.89-4.43,6.38-3.71,8.87-2.17A25.37,25.37,0,0,0,441,94.34a5.56,5.56,0,0,0,4.72-.22c-1.77-8.32.82-11.6,4.67-14.59a49.35,49.35,0,0,0,6-5,15.54,15.54,0,0,0,4.17-8.72c-5.21,4.13-10.14,4.67-13.8,2.93a10.65,10.65,0,0,1-4.59-4.33A19.24,19.24,0,0,1,439.68,57c-1,3.66-2.07,7.23-3.28,10.71s-2.51,6.88-3.95,10.18A22.24,22.24,0,0,1,425,73.28,8.51,8.51,0,0,1,422.43,68c-.48-3.71,1.25-8,2.73-12.47s2.85-9.06,1.68-13.11a10.34,10.34,0,0,0-1.35-2.93,11,11,0,0,0-1.31-1.59,20.53,20.53,0,0,0-1.79-1.66,21.71,21.71,0,0,0-4.67-2.94,32.44,32.44,0,0,0-6.29-2.23c2.65-.16,5.27-.21,8-.21s5.4.09,8.13.3c-4.47-2.46-9.67-6.56-16.09-11A107.27,107.27,0,0,0,387.78,7.5a77.35,77.35,0,0,0-7.4-2.38l-1.9-.5c-.63-.15-1.26-.3-2-.45-1.37-.28-2.73-.54-4.09-.75s-2.71-.39-4-.53-2.89-.23-4.31-.28a61.31,61.31,0,0,0-8.52.28c-1.44.15-2.85.34-4.23.59s-2.65.54-4.1.92a44.86,44.86,0,0,0-7.8,2.83c-1.16.56-2.41,1.23-3.55,1.92a33.85,33.85,0,0,0-3.25,2.24,28.66,28.66,0,0,0-2.84,2.5c-.44.43-.85.88-1.25,1.34s-.82.95-1.2,1.44c-2.56-1.85-6-4.91-7.29-8.05a4.87,4.87,0,0,1,.27-4.72C321.3,2.4,323.37,1,327,0c-2.47.08-5,.27-7.47.58-1.25.16-2.49.34-3.74.55s-2.54.53-3.81.84c-2.54.62-5.07,1.35-7.56,2.19s-4.88,1.92-7.27,3a69.41,69.41,0,0,0-7,3.72,71.49,71.49,0,0,0-6.43,4.34c-1.05.77-2,1.53-2.93,2.32S278.88,19.18,278,20c-1.68,1.59-3.43,3.29-4.86,4.92-.74.82-1.47,1.66-2.17,2.5s-1.29,1.64-1.92,2.47l-.93,1.25-.84,1.21c-.55.8-1.09,1.62-1.61,2.44a69.11,69.11,0,0,0-9.41,24.49c-.22,1.12-.34,2.11-.5,3.13s-.18,1.86-.28,2.78c-.18,1.81-.38,3.57-.63,5.26A71.47,71.47,0,0,1,253,79.85a28.39,28.39,0,0,1-1.58,4.05,19.27,19.27,0,0,1-2.09,3.54,17.71,17.71,0,0,1-2.9,3,20.71,20.71,0,0,1-1.79,1.32,19.81,19.81,0,0,1-2,1.16q-3.79-2.34-7.58-4.76c.43,2.65,3.66,5.93,5.54,8.77.94,1.43,1.54,2.76,1.28,3.89s-1.29,2-3.77,2.7c-3.36-1.31-7.78-4.3-8.85-2.43a76.4,76.4,0,0,1,5.78,9.47,14.78,14.78,0,0,1,1.72,5.63,5.25,5.25,0,0,1-.41,2.39c0,.09-.09.19-.13.26l-.1.07-.27.11a3.7,3.7,0,0,1-.8.13l-2.28-.94-1.15-.46-.29-.11a2.39,2.39,0,0,1-.26-.21l-.52-.44-4.15-3.57c-.51.61-1,1.22-1.4,1.83l-.3.46-.15.23c-.05.07-.07,0-.1.06a2.2,2.2,0,0,0-.34.13,1.43,1.43,0,0,0-.78.61c-.22.47.11,1.07.9,1.72,1.54,1.35,4.69,3.45,8.29,6.2a99.48,99.48,0,0,1,11,9.63c3.41,3.51,6.15,7.17,7.23,10.08-5.74-4-10.57-7-14.61-9.39s-7.3-4.23-9.94-5.74c-5.28-3-8.11-4.71-10-5.95l-3.15-3.09c-.75-.13,0,1.08,1.63,3.64s4.12,6.43,6.86,11.24,5.76,10.54,8.45,16.51a128.08,128.08,0,0,1,6.6,17.65c-11.43-16.81-14.09-19.28-15.87-19-.88.1-1.52.83-2.68,0s-2.81-3.43-5.44-10.43c1.48,4.38,4.5,14,7.22,23.51s5.12,18.81,5.59,22c-.92-2.2-.86-.86-.51,1.74s1,6.47,1.37,9.16.4,4.16-.39,1.84-2.42-8.45-5.48-20.85l.49.5c-6.41-23.55-8.81-32.14-9.77-34.77s-.62.84-1,.58q6.52,34.8,12.85,69.9c-3-11.81-5.08-20.12-6.61-25.66s-2.55-8.37-3.25-9.15c-1.38-1.62-1.81,4.87-2.67,12.05S208.38,205.56,207,205s-2.78-9.56-3.13-36.2a198.48,198.48,0,0,1-1.94,21.66c-.8,5.55-1.7,11.11-3,22.11L201.27,167c-.86-5.25-1.2-9.37-1.81-10.65s-1.46.27-3.74,6.18q3-17,5.71-33.91c0-.73-1.38,7.44-3.77,20.21s-5.74,30.11-9.39,47.68-7.58,35.33-11,48.9-6.27,23-7.55,23.72q7.07-35.56,14.76-71.17c-1.24.3-1.54-3.43-1.33-8.22s.89-10.61,1.19-14.47.15-5.76-1.74-2.86-5.62,10.65-12.85,25.71c4.06-10,12.05-29.89,13.53-32.5-.15-.6.62-4,1.42-7.19s1.62-6.3,1.26-6.44-2,2.63-6.17,10.93-11,22.11-21.6,44.6c6.93-14.54,10.44-22.43,11.68-25.67s.19-1.9-2.11,1.76-5.8,9.62-9.46,15.79L148,216.87l20.66-38.57-16.23,29.56C148,215.78,144.56,222,141.73,227c-5.64,10-8.8,15.28-11.15,19l8.66-15.94c3-5.41,4.83-8.84,2-3.43,3-5.72,3.43-6.48,2.56-5s-3,5.4-5.05,9.17L134,239.6c-.66,1.29,0,.07,3.26-5.66l11.12-20.56c1.72-3,.95-1.37-1.77,3.77s-7.44,13.92-13.33,25.2c-2.68,5.37.09,1.1,5.25-7.77,2.57-4.44,5.74-10.05,9.18-16.3s7.17-13.15,11-20.31c-4.37,8.42-9.18,17.9-12,23.85s-3.75,8.38-.81,3.34c5.46-10.5,8.1-16.09,9.44-18.89,3.73-6.44,4.73-7.82,4.65-7.05a64.28,64.28,0,0,1-2.31,6.3c-1,2.6-1.88,4.82-1.46,4.47s2.1-3.3,5.91-10.82c4.25-8.82,6.5-13.42,7.94-16.31l-4.3,6.5A40.52,40.52,0,0,0,163,193.8c6.61-13.21,11-21.59,15.57-30.74,2.32-4.59,4.7-9.38,7.57-15.2.67-1.38,3.68-7.49,10.6-21.57-2.36,4.81-5.32,10.92-8.22,17s-5.71,12.15-7.93,17-3.83,8.59-4.44,10.19-.25,1.11,1.43-2.23c1.42-3,2.8-5.93,3.88-8.2l1-2.32c1.37-2.76.63-1.06-.8,2.2,2.14-4.38,3.56-7.41,4.07-8.37,4.09-8.92,5.4-11.67,5.79-12.44s-.05.32.32-.5c-1.67,3.72,3.19-7.1-15.85,35.22.82-1.82,1-2.16.79-1.91.15-.38.14-.4.64-1.53l-.81,1.81-.63,1.07-1,1.62c-2.36,5.31-4.37,9.91-4.9,11.3s.35-.46,3.65-7.58l-13.79,31c2.88-6.37,6.43-14.2,10.18-22.48,2.65-5.94,5.45-12.2,8.07-18C184,156,189,144.78,190.26,142a11.53,11.53,0,0,1-1.47,2.58c-.33.33-.56.47-1.15,1-1.09,1.17-3.38,4.12-9,12.6-.57.23.43-2.07,1.75-4.8s3.08-6,4.06-8c1.07-1,.68.54,2.33-2.15-.32.32-.55.41-.72.36s-.33-.24-.45-.5a9.24,9.24,0,0,0-.74-1.77c-.36-.5-.92-.76-1.89-.33s-2.37,1.5-4.36,3.81a18.15,18.15,0,0,1,2.61-5.53,12.61,12.61,0,0,1,2.23-2.24,3.93,3.93,0,0,0,1.3-1.52,2.24,2.24,0,0,0,.13-1,4,4,0,0,0-.11-.7c-.06-.25-.14-.54-.2-.93l0,0,.12-.08c.78-.54,1.55-1.11,2.35-1.77.28-.58.55-1.16.81-1.71s.52-1.27.72-1.82.4-1.08.54-1.54a7.92,7.92,0,0,0,.41-2.25,2.8,2.8,0,0,0-1.6-2.52,11.56,11.56,0,0,0-1.82-.85c-.07,0-.22-.15-.2,0l0,.15,0,.07a1.35,1.35,0,0,1-.12-.12l-1.06-1c-.72-.69-1.39-1.35-2.17-2a51.55,51.55,0,0,0-4.69-3.55l-2.42-1.59c-.83-.5-1.68-1-2.51-1.44-6.67-3.74-13.18-6.06-19-9.09a49.29,49.29,0,0,1-4.36-2.44,48.11,48.11,0,0,1-4.31-2.87c-1.44-1-2.88-2.24-4.37-3.49s-3-2.68-4.6-4.25c1.84,1.65,2.72,2.44,2.64,4a46.14,46.14,0,0,0-12.65-4.91,58.85,58.85,0,0,0-13.41-1.38,96.93,96.93,0,0,0-26,4.36,214.34,214.34,0,0,0-23.86,9c-7.68,3.33-15.16,6.79-22.77,10.35a21.06,21.06,0,0,0-4.55,3.42,12,12,0,0,0-2.12,3.35,26.7,26.7,0,0,0-1.1,3.38,29.14,29.14,0,0,1-1.17,3.93q-2.08-.8-4.17-1.5c-.57,1.74-1,3.56-1.52,5.26l-.72,2.55-.63,2.57a23.57,23.57,0,0,1-2.53,4.13,27.67,27.67,0,0,1-3,3.47c-.55.53-1.08,1.07-1.61,1.62l-1.63,1.62a45.44,45.44,0,0,0-3.28,3.37,48.35,48.35,0,0,0-3.05,3.78,38.1,38.1,0,0,0-2.49,4.46,17,17,0,0,0-1,2.53c-.28.88-.53,1.8-.76,2.74a30.7,30.7,0,0,0-.8,6.13c.71-.51,1.44-1,2.17-1.49a50.73,50.73,0,0,0-1.55,5.19c-.43,2-.93,4-1.3,5.91s-.68,3.53-1,4.63-.58,1.68-.92,1.36a5.41,5.41,0,0,1,.1,4.32l-.92,0c0,1.22.07,2.46.1,3.68l.12,3.64c.22,2.42.29,4.82.52,7.2-.06,5.52-.54,5.1-1,5.31-.23.1-.43.37-.4,1.63a35.21,35.21,0,0,0,1.2,7.51l.65,2.4c.24.85.56,1.73.85,2.62.6,1.77,1.09,3.58,1.69,5.09,1.13,3.05,1.7,5.13,1.39,4.07-.68-2.29-1.68-5.89-1.5-6.11.41,1.76.9,3.5,1.31,5.26.14.47.4,1.73.3,1.24A17,17,0,0,1,5.64,228a54.73,54.73,0,0,1-.12-7.06c-.06-1.53-.17-3-.16-4.56s-.11-3-.15-4.54c.27-1,.56-2,.89-3-.12,1.27-.27,2.54-.36,3.81l-.2,3.84a43.74,43.74,0,0,0,.52-10.13,13.74,13.74,0,0,0,1.51-3.73l-.05-2.17c0-.72,0-1.44,0-2.17,0-1.45-.13-2.92-.14-4.38.59-.47.79.53,1.07.93s.66.21,1.79-2.54c.06-2-.79-1.16-1.44-.59s-1.12.82-.74-2.55a23.72,23.72,0,0,1,2.49-3.32c.55-.74.78-1.62,1.1-4.06,1-.46,1.14.63.74,2.5a27.81,27.81,0,0,1,.91-3.52l.59-1.89c.21-.63.48-1.24.69-1.84a24.78,24.78,0,0,0,1.06-3.39,4.86,4.86,0,0,0,.12-2.56,14.43,14.43,0,0,0,2.72-3.3c.9-1.29,1.73-2.72,2.52-4,1.71-2.49,3.28-4.35,5.09-3.15A16.4,16.4,0,0,1,27,156a18.79,18.79,0,0,1,1.21-3.17A17.31,17.31,0,0,1,29.83,150c.09,2.19.72,2.55,1.7,2.06a25.06,25.06,0,0,0,3.89-3.17A20.33,20.33,0,0,1,37.81,147a13.63,13.63,0,0,1,2.42-1.43c1.57-.66,3.07-.48,4,1C44,143.09,47,139.87,51,137.11c1.91-1.47,4.17-2.65,6.15-4.09a23.79,23.79,0,0,0,5.44-4.49c-.15.72-.41,2.1-1.3,2.07a12.77,12.77,0,0,1,5.82-.3c1.65.36,3.13.91,4.85,1.17-1.17-3.09-.11-5.45,1.59-7.8.83-1.22,1.88-2.26,2.85-3.42A24.4,24.4,0,0,0,79,116.61c4.07,2.66,3.68,5,3,7.18s-1.82,4.42.1,7.38c-1.1-2.74.83-4.39,2.68-6a11.44,11.44,0,0,0,2.31-2.4,2.63,2.63,0,0,0-.25-3c1.38.94,2.31,1.53,3,2a13.14,13.14,0,0,1,1.58,1.15c.81.73,1.42,1.68,3,4.84-.47-4.79.49-5.31,1.84-5.2a6.18,6.18,0,0,0,2.22,0,3,3,0,0,0,1.18-.71,5.72,5.72,0,0,0,1.18-1.63,11.35,11.35,0,0,1,4.16,6.63c.48,1.46,1,2,4,.84a3.66,3.66,0,0,1-.29,4.69A8,8,0,0,1,106.54,134.09ZM97.65,338.31l-.29.61a4,4,0,0,1,.54.06,1.18,1.18,0,0,1,.31.12,1.29,1.29,0,0,1-.21-.26A2.53,2.53,0,0,1,97.65,338.31Zm-7.1,5.51a20.41,20.41,0,0,1,3.79-3.58c5-10.17,9.67-20.21,8.61-18.84-1.37,3.08-3.21,6.53-5.32,10.26C95.55,335.22,92.73,340.06,90.55,343.82ZM189,144.59c1.14-2.61-1,2-3.22,6.87a7.32,7.32,0,0,1-.53,1.43l-1.18,2.64C185.3,152.85,186.66,149.84,189,144.59Z"/><path class="cls-1" d="M176.78,171.94c-.13.32-.49,1.12-.46,1.09l-2.58,5.6c1-2.2,2-4.46,2.87-6.41A2.91,2.91,0,0,1,176.78,171.94Z"/><path class="cls-1" d="M711.57,330.66l.11-.35a4.44,4.44,0,0,1-1.06,1.07A11.37,11.37,0,0,1,711.57,330.66Z"/><polygon class="cls-1" points="206.28 433.54 206.23 429.63 204.66 433.6 206.28 433.54"/><path class="cls-1" d="M783.77,355.33a3.38,3.38,0,0,0,2.05.84A4.42,4.42,0,0,0,783.77,355.33Z"/><path class="cls-1" d="M817.41,331.41c2-.62,4-1.3,5.9-2A32.14,32.14,0,0,0,817.41,331.41Z"/><path class="cls-1" d="M843.39,312a9.69,9.69,0,0,0-1.14-2.27s0,0-.07,0Z"/><path class="cls-1" d="M622,297.25a4.42,4.42,0,0,0,.27,1.2C623.7,302.8,623.2,300.89,622,297.25Z"/><path class="cls-1" d="M661.64,203.83c-1.64,4.55-3.28,9.24-4.52,11.91.38,1.84.75,3.14,1.4,1.83S660.1,212.42,661.64,203.83Z"/><path class="cls-1" d="M524,442.29c0-.12,0-.14,0-.3a12.52,12.52,0,0,1-1.61.86C522.92,442.66,523.48,442.5,524,442.29Z"/><path class="cls-1" d="M654.08,211.93c.4,7.57,1.51,7.06,3,3.81C656.58,212.58,655.71,208.14,654.08,211.93Z"/><path class="cls-1" d="M914.89,196.85l1.14-.78c-.07-.07,0-.18,0-.29C915.66,196.13,915.27,196.48,914.89,196.85Z"/><path class="cls-1" d="M916.05,195.78l1.18-1.05A3.87,3.87,0,0,0,916.05,195.78Z"/><path class="cls-1" d="M919.9,192.71c-.93.63-1.8,1.35-2.67,2A11.57,11.57,0,0,0,919.9,192.71Z"/><path class="cls-1" d="M894.57,228.23l.8.86A1.71,1.71,0,0,0,894.57,228.23Z"/><path class="cls-1" d="M890.8,240.26c.63-1.4,1.81-3,2.87-4.73a16,16,0,0,0,2.33-5.74l-.63-.7c.39,1.22-.85,3.12-2.21,5.17S890.38,238.48,890.8,240.26Z"/><path class="cls-1" d="M848,274.84l4-3.21,2-1.63c.65-.56,1.27-1.14,1.9-1.72-2.5.29-5.87.43-3.18-3.17-3.07,1.53-4.46,2.16-4.75,2.63s.42.66,1.23,1C850.8,269.3,852.81,270.28,848,274.84Z"/><path class="cls-1" d="M822.26,293.15c3.69-4-2.14-2.37-2.72-3.51C818.08,293.13,817.75,294.08,822.26,293.15Z"/><path class="cls-1" d="M716.57,229.85l10-12.35c-.41-1.26-1-1.32-1.54-.93a9.06,9.06,0,0,0-1.9,2.76c-.74,1.35-1.59,3-2.68,4.86A43.15,43.15,0,0,1,716.57,229.85Z"/><path class="cls-1" d="M668.86,266.17c-1.61,4.56-3.26,9-4.91,13.29q3.81-7.51,7.66-14.73A18.15,18.15,0,0,0,668.86,266.17Z"/><path class="cls-1" d="M707.58,126.94l1.76-.34-1.45-.34c-.24-.06-.48-.13-.72-.17l-.79,0-3.08-.15,2.15.46,1.09.22a4.9,4.9,0,0,1,.55.13Z"/><path class="cls-1" d="M467.65,307q-1.06,11.1-1.9,22.12c1-2.22,2-9.54,2.5-15.4S468.82,303.36,467.65,307Z"/><path class="cls-1" d="M417.18,274.22c5-1.17,9.07-2.42,10.78-3.34s1-1.61-3.63-2.14c-.81.94-3.18,2-5.07,3.08S416,273.86,417.18,274.22Z"/><path class="cls-1" d="M212.05,162.51c-.58-5-1.24-10-1.92-14.85.46,4.25.83,8.56,1.12,13C211.51,161.27,211.78,161.89,212.05,162.51Z"/></g></g></svg>