<?xml version="1.0" encoding="utf-8"?>
<svg fill="#000000" height="800px" width="800px" version="1.1" id="Capa_1" viewBox="0 0 297 297" xmlns="http://www.w3.org/2000/svg" xmlns:bx="https://boxy-svg.com">
  <defs>
    <bx:guide x="-1524.8237194901392" y="294.3981831293358" angle="0"/>
    <bx:guide x="165.5248507522415" y="207.54495453574242" angle="0"/>
    <bx:guide x="470.05408389969375" y="187.187423450327" angle="0"/>
  </defs>
  <g>
    <path d="M 148.5 0 C 87.43 0 37.747 49.703 37.747 110.797 C 37.747 201.823 137.476 290.702 141.723 294.442 C 143.659 296.147 146.079 297.001 148.5 297.001 C 150.921 297.001 153.341 296.148 155.278 294.442 C 159.523 290.703 259.253 201.824 259.253 110.797 C 259.253 49.703 209.57 0 148.5 0 Z M 151.685 151.212 C 129.636 129.846 107.145 181.11 107.145 112.247 C 107.145 62.463 113.58 70.791 150.061 77.157 C 186.542 83.523 192.567 64.591 192.247 111.045 C 191.812 174.144 173.734 129.845 151.685 151.212 Z"/>
    <path d="M148.5,59.183c-28.273,0-51.274,23.154-51.274,51.614c0,28.461,23.001,51.614,51.274,51.614 c28.273,0,51.274-23.153,51.274-51.614C199.774,82.337,176.773,59.183,148.5,59.183z M148.5,141.901 c-16.964,0-30.765-13.953-30.765-31.104c0-17.15,13.801-31.104,30.765-31.104c16.964,0,30.765,13.953,30.765,31.104 C179.265,127.948,165.464,141.901,148.5,141.901z"/>
  </g>
</svg>