<?xml version="1.0" encoding="utf-8"?>
<svg version="1.0" width="512.000000pt" height="512.000000pt" viewBox="0 43.275 1452.823 425.375" preserveAspectRatio="xMidYMid meet" xmlns="http://www.w3.org/2000/svg">
  <g transform="translate(0.000000,512.000000) scale(0.100000,-0.100000)" fill="#000000" stroke="none">
    <path d="M 2078.025 4680 C 2055.972 4675 2019.884 4662 1997.831 4651 C 1941.695 4622 48.106 2726 24.047 2675 C -2.016 2620 -2.016 2500 24.047 2445 C 37.079 2418 348.834 2100 1006.428 1443 C 2063.991 386 2005.85 437 2130.151 438 C 2228.39 438 2272.496 463 2408.827 598 C 2558.189 745 2571.22 768 2571.22 880 C 2571.22 943 2566.208 974 2552.174 1000 C 2542.15 1019 2280.516 1288 1971.768 1597 L 1408.402 2160 L 3143.608 2160 C 5123.406 2160 13988.471 2181.053 14126.528 2181.053 C 14287.958 2181.053 14364.997 2371 14359.985 2588 C 14356.977 2742 14354.972 2759 14331.917 2803 C 14304.851 2858 14261.617 2898.224 14198.464 2931.224 L 14170.179 2950.614 L 3172.678 2958 L 1419.429 2960 L 1971.768 3513 C 2599.288 4139 2583.25 4119 2574.228 4254 C 2571.22 4298 2561.196 4340 2548.165 4365 C 2537.138 4387 2471.98 4459 2403.815 4526 C 2311.591 4617 2269.489 4651 2235.407 4663 C 2174.258 4684 2128.147 4689 2078.025 4680 Z" style=""/>
    <ellipse style="stroke-width: 0px; paint-order: fill markers; stroke: rgb(7, 6, 6); transform-box: fill-box; transform-origin: 804.788% 88.3966%;" transform="matrix(1, 0, 0, -1, 0, 4538.36322)" cx="14139.302" cy="-2566.439" rx="387.088" ry="387.088"/>
  </g>
</svg>